<?xml version="1.0" standalone="no"?>
<!DOCTYPE svg PUBLIC "-//W3C//DTD SVG 20010904//EN"
 "http://www.w3.org/TR/2001/REC-SVG-20010904/DTD/svg10.dtd">
<svg version="1.0" xmlns="http://www.w3.org/2000/svg"
 width="1201.000000pt" height="1280.000000pt" viewBox="0 0 1201.000000 1280.000000"
 preserveAspectRatio="xMidYMid meet">
<metadata>
Created by potrace 1.15, written by Peter Selinger 2001-2017
</metadata>
<g transform="translate(0.000000,1280.000000) scale(0.100000,-0.100000)"
fill="#9e9e9e" stroke="none">
<path d="M2449 12782 c74 -139 561 -287 1337 -406 1208 -186 3368 -360 5419
-436 165 -6 323 -16 351 -21 267 -51 514 -363 716 -904 235 -629 413 -1671
493 -2880 48 -741 65 -1347 65 -2405 0 -1141 -24 -1989 -85 -3020 -25 -408
-92 -1310 -98 -1317 -7 -6 -927 25 -1827 62 -2676 112 -4713 264 -6027 450
-424 60 -907 142 -1035 176 l-38 10 0 322 c0 381 12 700 45 1237 96 1522 286
3442 747 7520 40 355 46 680 15 790 -40 141 -103 222 -217 280 -138 70 -293
89 -800 97 -427 7 -484 2 -587 -48 -133 -64 -198 -198 -253 -524 -22 -131 -55
-443 -154 -1495 -370 -3892 -509 -5927 -510 -7440 -1 -534 7 -734 40 -1030 59
-528 215 -848 510 -1040 174 -114 578 -247 1012 -335 844 -170 2594 -304 4902
-375 2004 -62 4661 -64 4932 -4 40 8 115 36 167 61 171 82 307 249 357 438 16
61 27 362 53 1490 68 2876 11 4876 -184 6473 -188 1534 -534 2750 -971 3407
-291 438 -610 689 -1009 792 l-100 26 -1475 8 c-811 4 -1902 12 -2425 18 -522
6 -1330 15 -1795 21 -465 5 -1011 12 -1214 16 l-368 7 11 -21z"/>
<path d="M3940 10217 c-36 -18 -105 -60 -155 -93 -49 -34 -133 -87 -185 -118
-106 -65 -173 -116 -196 -151 -15 -23 -9 -32 164 -282 98 -142 401 -584 672
-983 572 -840 922 -1350 1274 -1855 137 -198 268 -386 291 -419 l40 -58 -80
-75 c-1169 -1098 -2122 -1889 -3010 -2498 -217 -149 -285 -235 -285 -360 1
-135 135 -350 260 -416 35 -18 61 -23 116 -23 112 0 221 60 529 291 741 557
1475 1208 2437 2161 218 217 401 391 406 388 6 -3 43 -52 83 -109 579 -814
1276 -1735 1683 -2222 424 -508 782 -863 975 -969 51 -27 131 -49 131 -35 0 4
-39 68 -87 141 -47 73 -376 578 -731 1123 -874 1341 -1591 2443 -1615 2483
l-19 32 249 258 c327 338 551 572 1313 1377 836 882 1065 1120 1491 1550 l357
360 7 56 c8 64 4 99 -10 102 -5 1 -26 -21 -45 -50 -29 -43 -72 -77 -252 -202
-931 -643 -1690 -1284 -3218 -2719 -174 -163 -228 -209 -237 -199 -24 25
-1161 1796 -1600 2492 -276 438 -517 829 -593 963 -61 107 -63 108 -160 59z"/>
</g>
</svg>
