<svg xmlns="http://www.w3.org/2000/svg" width="19.07" height="20" viewBox="0 0 19.07 20">
  <g id="icon_nid" transform="translate(-2.465 -2)">
    <path id="Path_4443" data-name="Path 4443" d="M7.814,18.279A.7.7,0,0,1,7.3,17.1a5.258,5.258,0,0,1,3.788-1.616H11.1a.7.7,0,0,1,.007,1.4,3.863,3.863,0,0,0-2.783,1.175A.693.693,0,0,1,7.814,18.279ZM11.1,14.558A2.558,2.558,0,1,1,13.628,12,2.546,2.546,0,0,1,11.1,14.558Zm0-3.721A1.163,1.163,0,1,0,12.233,12,1.15,1.15,0,0,0,11.1,10.837Z" fill="#97a2ae"/>
    <path id="Path_4444" data-name="Path 4444" d="M11.535,22H9.674c-3.25,0-4.882,0-6.038-1.095-1.171-1.11-1.171-2.766-1.171-5.772V10.727c0-3.006,0-4.663,1.171-5.772C4.72,3.928,6.282,3.871,8.741,3.862h0a.7.7,0,0,1,0,1.395c-2.407.009-3.516.109-4.151.711-.707.67-.736,1.869-.736,4.759v4.406c0,2.89.029,4.089.736,4.759.752.713,2.2.713,5.078.713h1.861a.7.7,0,1,1,0,1.4Zm7.442-9.768a.7.7,0,0,1-.7-.7v-.808c0-2.89-.028-4.089-.736-4.759-.635-.6-1.743-.7-4.15-.711a.7.7,0,0,1-.695-.7.675.675,0,0,1,.7-.7c2.459.009,4.021.066,5.105,1.093,1.171,1.109,1.171,2.766,1.171,5.772v.808A.7.7,0,0,1,18.977,12.232Z" fill="#97a2ae"/>
    <path id="Path_4445" data-name="Path 4445" d="M11.533,7.116h-.927a3.352,3.352,0,0,1-1.788-.26,1.655,1.655,0,0,1-.652-.728A2.638,2.638,0,0,1,8.24,4.393l.078-.335L9,4.215l-.678-.164A3.451,3.451,0,0,1,8.6,3.145a2.222,2.222,0,0,1,1.464-1.084,4.482,4.482,0,0,1,1-.061,4.453,4.453,0,0,1,1,.061,2.217,2.217,0,0,1,1.465,1.085,3.4,3.4,0,0,1,.286.911l.079.335a2.647,2.647,0,0,1,.074,1.736,1.663,1.663,0,0,1-.651.727A3.35,3.35,0,0,1,11.533,7.116ZM9,4.215l.68.157L9.6,4.707a4.2,4.2,0,0,0-.156.863.28.28,0,0,0,.1.093,4.48,4.48,0,0,0,1.063.058h.927A4.485,4.485,0,0,0,12.6,5.663.275.275,0,0,0,12.7,5.55a5.718,5.718,0,0,0-.164-.842l-.078-.334a3.37,3.37,0,0,0-.152-.561.825.825,0,0,0-.552-.392A4.3,4.3,0,0,0,11.07,3.4a4.35,4.35,0,0,0-.69.025.823.823,0,0,0-.55.391,3.22,3.22,0,0,0-.151.555Z" fill="#97a2ae"/>
    <path id="Path_4446" data-name="Path 4446" d="M16.176,17.365a.7.7,0,1,0-.6,1.26Zm.527,1.457-.6.354a.7.7,0,0,0,1.23-.053Zm1.984-1.453a.7.7,0,1,0-.661-1.229Zm1.453.212A3.024,3.024,0,0,1,17.116,20.6V22a4.418,4.418,0,0,0,4.419-4.419ZM17.116,20.6a3.024,3.024,0,0,1-3.023-3.024H12.7A4.418,4.418,0,0,0,17.116,22Zm-3.023-3.024a3.024,3.024,0,0,1,3.023-3.023V13.163A4.418,4.418,0,0,0,12.7,17.581Zm3.023-3.023a3.024,3.024,0,0,1,3.024,3.023h1.4a4.418,4.418,0,0,0-4.419-4.418ZM15.876,18c-.3.63-.3.629-.3.629h-.006l0,0h0l.025.014a1.13,1.13,0,0,1,.126.091,1.668,1.668,0,0,1,.385.451l1.2-.708a3.053,3.053,0,0,0-.708-.827,2.549,2.549,0,0,0-.276-.2c-.037-.023-.068-.04-.092-.053l-.031-.017-.012-.006,0,0h0S16.176,17.365,15.876,18Zm.827.827.629.3h0v0l0-.01.022-.043c.02-.039.05-.1.089-.169.078-.143.191-.339.328-.547a3.139,3.139,0,0,1,.911-.984l-.661-1.229a4.41,4.41,0,0,0-1.414,1.444c-.164.249-.3.48-.389.648-.046.085-.083.155-.108.2l-.029.058-.009.017,0,.006h0Z" fill="#97a2ae"/>
  </g>
</svg>
