<svg xmlns="http://www.w3.org/2000/svg" width="20" height="20" viewBox="0 0 20 20">
  <g id="icon_account" transform="translate(-2 -2)">
    <path id="Path_4433" data-name="Path 4433" d="M12,22a.7.7,0,1,1,0-1.4A8.6,8.6,0,1,0,12,3.4.7.7,0,0,1,12,2a10,10,0,0,1,0,20Z" fill="#97a2ae"/>
    <path id="Path_4434" data-name="Path 4434" d="M9.209,21.535a.712.712,0,0,1-.225-.037A10.953,10.953,0,0,1,5.73,19.755a.7.7,0,0,1,.863-1.1,9.547,9.547,0,0,0,2.842,1.52.7.7,0,0,1-.226,1.358ZM3.9,17.4a.7.7,0,0,1-.593-.329,9.59,9.59,0,0,1-1.3-3.315A.7.7,0,0,1,3.384,13.5,8.191,8.191,0,0,0,4.5,16.337a.7.7,0,0,1-.224.961A.688.688,0,0,1,3.9,17.4ZM2.7,11.066a.694.694,0,0,1-.687-.825,9.6,9.6,0,0,1,1.3-3.316A.7.7,0,1,1,4.5,7.662,8.2,8.2,0,0,0,3.384,10.5.7.7,0,0,1,2.7,11.066ZM6.162,5.492a.7.7,0,0,1-.428-1.249A11.154,11.154,0,0,1,8.984,2.5a.7.7,0,1,1,.45,1.32A9.806,9.806,0,0,0,6.588,5.346.7.7,0,0,1,6.162,5.492Z" fill="#97a2ae"/>
    <path id="Path_4435" data-name="Path 4435" d="M15.721,16.884a.7.7,0,0,1-.516-.228,4.209,4.209,0,0,0-3.123-1.342,4.57,4.57,0,0,0-3.3,1.351.7.7,0,0,1-1.016-.958,5.871,5.871,0,0,1,4.323-1.788,5.659,5.659,0,0,1,4.143,1.8.7.7,0,0,1-.516,1.167ZM11.993,12.7a2.791,2.791,0,1,1,2.768-2.791A2.783,2.783,0,0,1,11.993,12.7Zm0-4.186a1.4,1.4,0,1,0,1.372,1.395A1.385,1.385,0,0,0,11.993,8.512Z" fill="#97a2ae"/>
  </g>
</svg>
