<svg xmlns="http://www.w3.org/2000/svg" width="22.052" height="20" viewBox="0 0 22.052 20">
  <g id="icon_profile" transform="translate(-0.974 -2)">
    <path id="Path_4436" data-name="Path 4436" d="M18.154,9.692h-4.1a.769.769,0,0,1,0-1.538h4.1a.769.769,0,1,1,0,1.538Z" fill="#97a2ae"/>
    <path id="Path_4437" data-name="Path 4437" d="M17.128,13.282H14.051a.769.769,0,1,1,0-1.538h3.077a.769.769,0,0,1,0,1.538Z" fill="#97a2ae"/>
    <path id="Path_4438" data-name="Path 4438" d="M17.128,22H6.872a5.9,5.9,0,0,1-5.9-5.9V7.9A5.9,5.9,0,0,1,6.872,2H17.128a5.9,5.9,0,0,1,5.9,5.9V16.1A5.9,5.9,0,0,1,17.128,22ZM6.872,3.539A4.363,4.363,0,0,0,2.513,7.9V16.1a4.363,4.363,0,0,0,4.359,4.359H17.128A4.363,4.363,0,0,0,21.487,16.1V7.9a4.363,4.363,0,0,0-4.359-4.359Z" fill="#97a2ae"/>
    <path id="Path_4439" data-name="Path 4439" d="M4.82,16.872a.768.768,0,0,1-.7-1.1A4.692,4.692,0,0,1,8.45,13.282h0A4.56,4.56,0,0,1,12.7,15.776a.77.77,0,1,1-1.394.653A3.07,3.07,0,0,0,8.45,14.821h0a3.158,3.158,0,0,0-2.933,1.608A.77.77,0,0,1,4.82,16.872Z" fill="#97a2ae"/>
    <path id="Path_4440" data-name="Path 4440" d="M8.41,11.744a2.821,2.821,0,1,1,2.821-2.821A2.823,2.823,0,0,1,8.41,11.744Zm0-4.1A1.282,1.282,0,1,0,9.692,8.923,1.283,1.283,0,0,0,8.41,7.641Z" fill="#97a2ae"/>
  </g>
</svg>
