<svg xmlns="http://www.w3.org/2000/svg" width="18.14" height="20" viewBox="0 0 18.14 20">
  <g id="icon_reports" transform="translate(-2.93 -2)">
    <path id="Path_4447" data-name="Path 4447" d="M12,22c-3.635,0-5.459,0-6.865-1.022A5.311,5.311,0,0,1,3.952,19.8C2.93,18.389,2.93,16.565,2.93,12.93V11.07c0-3.635,0-5.459,1.022-6.865A5.311,5.311,0,0,1,5.135,3.022C6.541,2,8.365,2,12,2s5.46,0,6.865,1.021A5.358,5.358,0,0,1,20.048,4.2c1.022,1.406,1.022,3.23,1.022,6.865v1.86c0,3.635,0,5.459-1.022,6.865a5.315,5.315,0,0,1-1.184,1.183C17.46,22,15.635,22,12,22ZM12,3.4c-3.333,0-5.005,0-6.045.754a3.943,3.943,0,0,0-.874.875c-.755,1.039-.755,2.712-.755,6.045v1.86c0,3.333,0,5,.755,6.045a3.943,3.943,0,0,0,.874.875c1.04.755,2.712.755,6.045.755s5,0,6.044-.755a3.952,3.952,0,0,0,.876-.875c.754-1.04.754-2.712.754-6.045V11.07c0-3.333,0-5.006-.754-6.045a3.969,3.969,0,0,0-.875-.875C17,3.4,15.333,3.4,12,3.4Z" fill="#97a2ae"/>
    <path id="Path_4448" data-name="Path 4448" d="M14.791,13.628a.7.7,0,0,1-.642-.422l-.616-1.438H10.467L9.851,13.2a.7.7,0,0,1-1.283-.549l.791-1.846.012-.029L10.808,7.43a1.3,1.3,0,0,1,2.384,0l1.436,3.351c.005.01.009.019.013.029l.791,1.846a.7.7,0,0,1-.366.916A.708.708,0,0,1,14.791,13.628Zm-3.726-3.256h1.87L12,8.19Z" fill="#97a2ae"/>
    <path id="Path_4449" data-name="Path 4449" d="M15.721,17.349H8.279a.7.7,0,1,1,0-1.4h7.442a.7.7,0,1,1,0,1.4Z" fill="#97a2ae"/>
  </g>
</svg>
