<svg xmlns="http://www.w3.org/2000/svg" width="16" height="16" viewBox="0 0 16 16"><g transform="translate(-4 -4)"><path d="M12,20c-3.652,0-5.485,0-6.743-1.258S4,15.652,4,12,4,6.515,5.257,5.257,8.348,4,12,4s5.486,0,6.742,1.257S20,8.348,20,12s0,5.486-1.258,6.742S15.652,20,12,20ZM12,5.171c-3.329,0-5,0-5.915.914S5.171,8.671,5.171,12s0,5,.914,5.915,2.586.914,5.915.914,5,0,5.915-.914.914-2.586.914-5.915,0-5-.914-5.915S15.329,5.171,12,5.171Z" fill="#cad0d7"/><path d="M14.834,8.421l.133-.571h0Zm-5.668,0,.133.57Zm-.791.3.4.429h0Zm-.863,1.11a.585.585,0,0,0,1.171,0Zm.7-.9L7.7,8.636h0Zm7.413-.2.4-.428h0Zm-.308,1.11a.586.586,0,0,0,1.171,0Zm.471-.9-.508.291h0ZM11.415,15.9a.585.585,0,1,0,1.17,0Zm1.886.586a.586.586,0,0,0,0-1.171Zm-2.6-1.171a.586.586,0,0,0,0,1.171ZM12,8.683a11.881,11.881,0,0,1,2.7.308l.266-1.141A13.131,13.131,0,0,0,12,7.512Zm-2.7.308A11.881,11.881,0,0,1,12,8.683V7.512a13.131,13.131,0,0,0-2.967.338ZM9.033,7.85a2.162,2.162,0,0,0-1.057.444l.8.857a.25.25,0,0,1,.1-.05c.088-.031.208-.059.427-.11Zm-.35,1.982c0-.246,0-.389.011-.495a.3.3,0,0,1,.026-.119L7.7,8.636a1.45,1.45,0,0,0-.175.584c-.017.178-.017.389-.017.612ZM7.976,8.294a1.5,1.5,0,0,0-.272.342l1.016.582a.381.381,0,0,1,.053-.067Zm6.725.7c.219.051.339.079.427.11a.25.25,0,0,1,.1.05l.8-.857a2.162,2.162,0,0,0-1.057-.444Zm1.787.841c0-.223,0-.434-.017-.612a1.45,1.45,0,0,0-.175-.584l-1.016.582a.3.3,0,0,1,.026.119c.01.106.011.249.011.495Zm-1.261-.681a.381.381,0,0,1,.053.067L16.3,8.636a1.5,1.5,0,0,0-.272-.342ZM11.415,8.1v7.8h1.17V8.1ZM13.3,15.317H10.7v1.171h2.6Z" fill="#cad0d7"/></g></svg>