<svg xmlns="http://www.w3.org/2000/svg" width="20" height="20" viewBox="0 0 20 20">
  <g id="icon_dashboard" transform="translate(54.311 -24)">
    <path id="Path_4423" data-name="Path 4423" d="M-49.892,34.7c-1.883,0-2.921,0-3.67-.75s-.749-1.786-.749-3.669v-1.86c0-1.882,0-2.92.75-3.669s1.786-.75,3.669-.75,2.921,0,3.67.75.749,1.787.749,3.669v1.86c0,1.883,0,2.92-.75,3.669S-48.009,34.7-49.892,34.7Zm0-9.3c-1.624,0-2.356.013-2.682.34s-.341,1.059-.341,2.683v1.86c0,1.625.013,2.356.34,2.683s1.059.341,2.683.341,2.356-.014,2.682-.341.341-1.058.341-2.683v-1.86c0-1.624-.013-2.356-.34-2.683S-48.268,25.4-49.892,25.4Z" fill="#97a2ae"/>
    <path id="Path_4424" data-name="Path 4424" d="M-48.962,44h-1.86a5.008,5.008,0,0,1-1.91-.195,2.542,2.542,0,0,1-1.384-1.384,5.005,5.005,0,0,1-.195-1.909,5.006,5.006,0,0,1,.195-1.91,2.54,2.54,0,0,1,1.385-1.384,5,5,0,0,1,1.909-.195h1.86a5.008,5.008,0,0,1,1.91.195A2.537,2.537,0,0,1-45.668,38.6a5,5,0,0,1,.195,1.909,5.005,5.005,0,0,1-.195,1.909,2.577,2.577,0,0,1-1.384,1.384A5.008,5.008,0,0,1-48.962,44Zm-1.86-5.581a4.781,4.781,0,0,0-1.375.088,1.156,1.156,0,0,0-.63.629,4.79,4.79,0,0,0-.088,1.376,4.789,4.789,0,0,0,.088,1.375,1.169,1.169,0,0,0,.63.629,4.729,4.729,0,0,0,1.375.089h1.86a4.741,4.741,0,0,0,1.376-.089,1.171,1.171,0,0,0,.629-.629,4.789,4.789,0,0,0,.088-1.375,4.79,4.79,0,0,0-.088-1.376,1.158,1.158,0,0,0-.629-.629,4.794,4.794,0,0,0-1.376-.088Z" fill="#97a2ae"/>
    <path id="Path_4425" data-name="Path 4425" d="M-38.729,44c-1.883,0-2.921,0-3.67-.749s-.749-1.787-.749-3.669V37.721c0-1.882,0-2.92.75-3.669s1.786-.749,3.669-.749,2.92,0,3.669.749.749,1.787.749,3.669v1.861c0,1.882,0,2.919-.749,3.669S-36.846,44-38.729,44Zm0-9.3c-1.624,0-2.356.013-2.682.341s-.341,1.058-.341,2.682v1.861c0,1.624.013,2.355.34,2.682s1.059.341,2.683.341,2.356-.014,2.682-.341.341-1.058.341-2.682V37.721c0-1.624-.014-2.355-.341-2.682S-37.1,34.7-38.729,34.7Z" fill="#97a2ae"/>
    <path id="Path_4426" data-name="Path 4426" d="M-37.8,30.977h-1.86a5.033,5.033,0,0,1-1.91-.194A2.586,2.586,0,0,1-42.953,29.4a5.005,5.005,0,0,1-.195-1.909,5.006,5.006,0,0,1,.195-1.91,2.539,2.539,0,0,1,1.384-1.384A5.008,5.008,0,0,1-39.659,24h1.86a5.011,5.011,0,0,1,1.91.195,2.543,2.543,0,0,1,1.384,1.385,5.022,5.022,0,0,1,.194,1.909,5.03,5.03,0,0,1-.194,1.909,2.58,2.58,0,0,1-1.384,1.384A5.011,5.011,0,0,1-37.8,30.977Zm-1.86-5.581a4.741,4.741,0,0,0-1.376.089,1.149,1.149,0,0,0-.628.627,4.75,4.75,0,0,0-.089,1.377,4.789,4.789,0,0,0,.088,1.375,1.177,1.177,0,0,0,.629.629,4.741,4.741,0,0,0,1.376.089h1.86a4.729,4.729,0,0,0,1.375-.089,1.179,1.179,0,0,0,.63-.629,4.789,4.789,0,0,0,.088-1.375,4.79,4.79,0,0,0-.088-1.376,1.156,1.156,0,0,0-.63-.629A4.781,4.781,0,0,0-37.8,25.4Z" fill="#97a2ae"/>
  </g>
</svg>
