<svg xmlns="http://www.w3.org/2000/svg" width="20" height="20" viewBox="0 0 20 20">
  <g id="icon_role" transform="translate(-2 -2)">
    <path id="Path_4427" data-name="Path 4427" d="M12,16.634a2.685,2.685,0,0,1-2.683-2.683V13.3a2.861,2.861,0,0,1,.059-.768,1.707,1.707,0,0,1,1.206-1.206,2.865,2.865,0,0,1,.768-.059h1.3a2.889,2.889,0,0,1,.766.058,1.716,1.716,0,0,1,1.209,1.207,2.909,2.909,0,0,1,.058.768v.65A2.685,2.685,0,0,1,12,16.634Zm-.881-3.9a.844.844,0,0,0-.163.011.244.244,0,0,0-.167.171,2.583,2.583,0,0,0-.009.389v.65a1.22,1.22,0,0,0,2.44,0V13.3a2.474,2.474,0,0,0-.01-.392.243.243,0,0,0-.172-.169,2.724,2.724,0,0,0-.388-.008h-1.3Z" fill="#97a2ae"/>
    <path id="Path_4428" data-name="Path 4428" d="M15.008,14.195H13.854V12.732h1.154a12.5,12.5,0,0,0,2.26-.1A3.864,3.864,0,0,0,20.1,10.4a9.113,9.113,0,0,0,.373-1.956,4.405,4.405,0,0,0,.065-.6.61.61,0,0,0-.481-.455,4.727,4.727,0,0,0-.714-.024H4.659a4.532,4.532,0,0,0-.714.025.606.606,0,0,0-.48.455,4.25,4.25,0,0,0,.062.586A9.32,9.32,0,0,0,3.9,10.4a3.861,3.861,0,0,0,2.829,2.233,12.392,12.392,0,0,0,2.262.1h1.153v1.463H8.993a12.924,12.924,0,0,1-2.565-.129,5.323,5.323,0,0,1-3.88-3.109,9.759,9.759,0,0,1-.47-2.317A3.474,3.474,0,0,1,2.02,7.61,2.064,2.064,0,0,1,3.591,5.971,4.414,4.414,0,0,1,4.659,5.9H19.341a4.469,4.469,0,0,1,1.067.067A2.067,2.067,0,0,1,21.98,7.61a3.459,3.459,0,0,1-.057,1.024,9.675,9.675,0,0,1-.472,2.323,5.323,5.323,0,0,1-3.879,3.109A12.913,12.913,0,0,1,15.008,14.195Z" fill="#97a2ae"/>
    <path id="Path_4429" data-name="Path 4429" d="M12.921,22H11.079C7.4,22,5.551,22,4.255,20.627c-1.279-1.355-1.279-3.3-1.279-7.163V11.512a.732.732,0,0,1,1.463,0v1.952c0,3.48,0,5.227.88,6.159.863.914,2.5.914,5.76.914h1.842c3.261,0,4.9,0,5.761-.914.879-.932.879-2.679.879-6.159V11.512a.731.731,0,0,1,1.463,0v1.952c0,3.868,0,5.808-1.279,7.163C18.449,22,16.6,22,12.921,22Z" fill="#97a2ae"/>
    <path id="Path_4430" data-name="Path 4430" d="M14.7,6.79l-.075-.345a7.712,7.712,0,0,0-.838-2.73c-.206-.227-.524-.251-1.687-.251h-.2c-1.163,0-1.481.024-1.687.251a7.542,7.542,0,0,0-.836,2.726L9.3,6.79,7.87,6.479l.076-.346c.4-1.844.606-2.768,1.184-3.4C9.8,2,10.632,2,11.9,2h.2c1.267,0,2.1,0,2.77.73.58.637.782,1.562,1.184,3.4l.075.346Z" fill="#97a2ae"/>
  </g>
</svg>
