<svg xmlns="http://www.w3.org/2000/svg" width="20" height="20" viewBox="0 0 20 20">
  <g id="icon_products" transform="translate(-2 -2)">
    <path id="Path_4450" data-name="Path 4450" d="M12.775,17.349h-1.55c-3.114,0-4.676,0-5.79-1.125s-1.109-2.7-1.109-5.838V6.419a.7.7,0,0,1,.7-.7H18.977a.7.7,0,0,1,.7.7v3.967c0,3.141,0,4.717-1.11,5.838S15.889,17.349,12.775,17.349ZM5.721,7.116v3.27c0,2.759,0,4.143.706,4.857s2.072.711,4.8.711h1.55c2.726,0,4.094,0,4.8-.711s.707-2.1.707-4.857V7.116Z" fill="#97a2ae"/>
    <path id="Path_4451" data-name="Path 4451" d="M5.023,7.116a.7.7,0,0,1-.632-.993l.671-1.432c.562-1.2.872-1.859,1.585-2.281A5.588,5.588,0,0,1,9.558,2h4.884a5.593,5.593,0,0,1,2.912.41c.713.422,1.022,1.083,1.584,2.282l.67,1.431a.7.7,0,1,1-1.263.592l-.671-1.431c-.49-1.046-.7-1.478-1.031-1.673a5.1,5.1,0,0,0-2.2-.215H9.558a5.124,5.124,0,0,0-2.2.214c-.329.2-.541.628-1.031,1.674L5.655,6.715A.7.7,0,0,1,5.023,7.116Z" fill="#97a2ae"/>
    <path id="Path_4452" data-name="Path 4452" d="M13.4,9.907H10.6a.7.7,0,1,1,0-1.395H13.4a.7.7,0,1,1,0,1.395Z" fill="#97a2ae"/>
    <path id="Path_4453" data-name="Path 4453" d="M21.3,22a.7.7,0,0,1-.7-.7,1.63,1.63,0,0,0-1.628-1.628H17.349V21.3a.7.7,0,0,1-1.4,0V19.675H12.7V21.3a.7.7,0,0,1-1.4,0V19.675H8.047V21.3a.7.7,0,0,1-1.4,0V19.675H5.023A1.63,1.63,0,0,0,3.395,21.3.7.7,0,0,1,2,21.3a3.027,3.027,0,0,1,3.023-3.024H18.977A3.027,3.027,0,0,1,22,21.3.7.7,0,0,1,21.3,22Z" fill="#97a2ae"/>
  </g>
</svg>
