<svg xmlns="http://www.w3.org/2000/svg" width="19.074" height="20" viewBox="0 0 19.074 20"><g transform="translate(-2.461 -2)"><path d="M17.581,22a.7.7,0,0,1-.7-.7V18.744H14.325a.7.7,0,0,1,0-1.395h2.559V14.791a.7.7,0,1,1,1.395,0v2.558h2.558a.7.7,0,1,1,0,1.395H18.279V21.3A.7.7,0,0,1,17.581,22Z" fill="#97a2ae"/><path d="M11.07,16.419H7.349a.7.7,0,0,1,0-1.4H11.07a.7.7,0,0,1,0,1.4Zm3.721-4.652H7.349a.7.7,0,1,1,0-1.4h7.442a.7.7,0,0,1,0,1.4Z" fill="#97a2ae"/><path d="M11.535,22H8.74C6.009,22,4.5,22,3.483,20.977s-1.022-2.528-1.022-5.262V9.664c0-2.734,0-4.24,1.022-5.262.779-.78,1.829-.959,3.38-1.006a.72.72,0,0,1,.718.676A.7.7,0,0,1,6.9,4.79c-1.4.042-2.035.2-2.434.6C3.857,6,3.857,7.226,3.857,9.664v6.051c0,2.439,0,3.662.613,4.276S6.3,20.6,8.74,20.6h2.8a.7.7,0,0,1,0,1.4Zm7.438-9.3a.7.7,0,0,1-.7-.7V9.664c0-2.438,0-3.662-.613-4.276-.4-.4-1.036-.556-2.434-.6a.7.7,0,0,1,.02-1.395h.021c1.551.047,2.6.226,3.38,1.006,1.022,1.022,1.022,2.528,1.022,5.262V12A.7.7,0,0,1,18.973,12.7Z" fill="#97a2ae"/><path d="M13.624,6.651H8.508A2.326,2.326,0,1,1,8.508,2h5.116a2.326,2.326,0,1,1,0,4.651ZM8.508,3.395a.931.931,0,0,0,0,1.861h5.116a.931.931,0,0,0,0-1.861Z" fill="#97a2ae"/></g></svg>