<svg xmlns="http://www.w3.org/2000/svg" width="226.468" height="139.998" viewBox="0 0 226.468 139.998"><g transform="translate(-2060.102 -1357.175)"><path d="M2286.57,1365.122v124.09a7.965,7.965,0,0,1-7.961,7.961H2068.05a7.955,7.955,0,0,1-7.948-7.961v-124.09a7.945,7.945,0,0,1,7.948-7.947h210.56A7.954,7.954,0,0,1,2286.57,1365.122Z" transform="translate(0)" fill="#f5f7fa"/><path d="M2286.57,1365.122v19.653H2060.1v-19.653a7.945,7.945,0,0,1,7.948-7.947h210.56A7.954,7.954,0,0,1,2286.57,1365.122Z" transform="translate(0)" fill="#a5a6f6"/><rect width="120.207" height="7.772" transform="translate(2153.044 1397.255)" fill="rgba(151,162,174,0.2)"/><rect width="83.592" height="7.772" transform="translate(2153.044 1412.999)" fill="rgba(151,162,174,0.2)"/><rect width="72.883" height="7.772" transform="translate(2153.044 1428.743)" fill="rgba(151,162,174,0.2)"/><rect width="46.977" height="7.772" transform="translate(2153.044 1444.487)" fill="rgba(151,162,174,0.2)"/><rect width="70.535" height="7.772" transform="translate(2153.044 1460.231)" fill="rgba(151,162,174,0.2)"/><rect width="97.724" height="7.772" transform="translate(2153.044 1475.975)" fill="rgba(151,162,174,0.2)"/><rect width="66.31" height="86.774" transform="translate(2073.234 1397.255)" fill="#e2e6eb"/><path d="M2119.029,1406.053a26.818,26.818,0,0,0-.439,5.383,4.938,4.938,0,0,1-5.747,4.722,14.46,14.46,0,0,1-6.962,9.889,41.4,41.4,0,0,0-4.359,3.092c-.429.357-.847.725-1.232,1.1-2.229,2.153-2.665,2.555-3.8,2.555h-4.528c-1.135,0-1.571-.4-3.8-2.555-.385-.371-.8-.74-1.232-1.1a41.464,41.464,0,0,0-4.358-3.092,14.461,14.461,0,0,1-6.963-9.889,4.937,4.937,0,0,1-5.747-4.722,26.747,26.747,0,0,0-.441-5.383c-1.46-7.67,5.555-6.5,5.555-6.5,2.336-16.294,19.247-12.64,19.247-12.64s16.915-3.654,19.25,12.64C2113.476,1399.553,2120.492,1398.384,2119.029,1406.053Z" transform="translate(12.162 39.183)" fill="#ffe7dc"/><path d="M2073.71,1404.938a54.751,54.751,0,0,1-.416-11.713s-3.8.184-2.811,4.641a18.946,18.946,0,0,1,.291,3.689A3.272,3.272,0,0,0,2073.71,1404.938Z" transform="translate(13.624 48.066)" fill="#e6c0b3"/><path d="M2088.056,1404.938a54.72,54.72,0,0,0,.417-11.713s3.8.184,2.811,4.641a18.992,18.992,0,0,0-.292,3.689A3.271,3.271,0,0,1,2088.056,1404.938Z" transform="translate(37.273 48.066)" fill="#e6c0b3"/><path d="M2118.982,1385.784a5.962,5.962,0,0,0-.714-2.221s-1.366-2.044-9.3,1.365a24.732,24.732,0,0,1-14.683,1.668s-11.287-3.07-17.717.474-6.538,13.809-6.538,13.809-4.116-12.931,10.348-17.365c0,0,3.556-1.362,11.349-1.169a30.158,30.158,0,0,0,9.643-1.521S2119.782,1374.477,2118.982,1385.784Z" transform="translate(12.51 29.164)" fill="#e2b598"/><path d="M2094.972,1392.163a34.264,34.264,0,0,1-4.106,10.857.5.5,0,0,1-.924-.161,27.574,27.574,0,0,0-2.5-7.7,8.608,8.608,0,0,0-1.672-2.277c3.761-1.143,6.333-3.229,9.238-7.32A18.447,18.447,0,0,1,2094.972,1392.163Z" transform="translate(34.218 37.849)" fill="#ae8873"/><path d="M2116.449,1391.947l-.046.068c-2.906,4.09-5.477,6.176-9.238,7.32a29.748,29.748,0,0,1-5.521,1.027,15.912,15.912,0,0,1-11.69-3.25,7.634,7.634,0,0,0-2.975-.971l0,0-.046-.007-.035,0a10.558,10.558,0,0,0-3.407.145c-3.98.8-6.5,4.6-7.744,8.948s-1.662,4.9-1.662,4.9c-2.643-3.792-4.366-11.475-4.366-11.475s.11-10.264,6.538-13.809,17.717-.474,17.717-.474a24.733,24.733,0,0,0,14.684-1.668c7.937-3.409,9.3-1.365,9.3-1.365a5.969,5.969,0,0,1,.713,2.221C2119.164,1387.467,2116.449,1391.947,2116.449,1391.947Z" transform="translate(12.82 31.396)" fill="#d1a689"/><path d="M2106.507,1392.163a20.409,20.409,0,0,1-7.534,3,33.584,33.584,0,0,1-7.45.651s-7.816.364-10.3-2.851c-2.086-2.7-3.659-3.187-4.107-3.272a7.633,7.633,0,0,1,2.975.971,15.913,15.913,0,0,0,11.69,3.25,29.744,29.744,0,0,0,5.521-1.027c3.761-1.143,6.332-3.229,9.238-7.32A18.442,18.442,0,0,1,2106.507,1392.163Z" transform="translate(22.684 37.849)" fill="#977764"/><path d="M2130.738,1418.431h-64.653s1.752-9.132,24.838-12.056c0,0,1.06,3.143,5.7,3.983l1.789,3.544,1.787-3.544c4.641-.84,5.7-3.983,5.7-3.983C2128.986,1409.3,2130.738,1418.431,2130.738,1418.431Z" transform="translate(7.977 65.599)" fill="#a6aaae"/><path d="M2091.707,1408.461s-1.059,3.143-5.7,3.983l-1.787,3.544-1.789-3.544c-4.641-.84-5.7-3.983-5.7-3.983l.193-3.651c.427.357.847.725,1.232,1.1,2.228,2.153,2.665,2.555,3.8,2.555h4.528c1.135,0,1.571-.4,3.8-2.555.385-.371.8-.74,1.232-1.1Z" transform="translate(22.17 63.512)" fill="#e9c6ba"/><path d="M2080.708,1383.216s-9.642,3.01-9.278,12.784C2071.43,1396,2067.557,1381.793,2080.708,1383.216Z" transform="translate(14.395 34.588)" fill="#ad8a73"/><path d="M2075.1,1390.814s-.474-3.47,15.012-1.862c0,0,8.074.474,17.243-7.014,0,0-8.659,10.556-16.62,10.264a26.139,26.139,0,0,1-5.261-.768C2083.5,1390.814,2082.847,1390.046,2075.1,1390.814Z" transform="translate(19.999 33.017)" fill="#ad8a73"/><path d="M2098.573,1384.349s-8.218,7.744-16.363,8.694C2082.21,1393.043,2095.176,1394.613,2098.573,1384.349Z" transform="translate(29.477 36.231)" fill="#ad8a73"/></g></svg>