<svg xmlns="http://www.w3.org/2000/svg" width="16" height="15.61" viewBox="0 0 16 15.61">
  <g id="icon_userid" transform="translate(-1.75 -2)">
    <path id="Path_5046" data-name="Path 5046" d="M9.75,17.61c-3.652,0-5.485,0-6.743-1.227S1.75,13.369,1.75,9.8s0-5.352,1.257-6.578S6.1,2,9.75,2s5.485,0,6.743,1.227S17.75,6.242,17.75,9.8s0,5.352-1.257,6.578S13.4,17.61,9.75,17.61Zm0-14.467c-3.33,0-5,0-5.915.891S2.921,6.557,2.921,9.8s0,4.879.914,5.77,2.586.893,5.915.893,5,0,5.915-.893.915-2.522.915-5.77,0-4.879-.915-5.771S13.08,3.143,9.75,3.143Z" transform="translate(0 0)" fill="#b2becc"/>
    <path id="Path_5047" data-name="Path 5047" d="M14.36,15.147a.592.592,0,0,1-.431-.184,4.118,4.118,0,0,0-3-1.243,4.456,4.456,0,0,0-3.167,1.25.594.594,0,0,1-.827.02.561.561,0,0,1-.019-.808,5.655,5.655,0,0,1,4.024-1.6,5.358,5.358,0,0,1,3.854,1.612.562.562,0,0,1-.034.807A.593.593,0,0,1,14.36,15.147ZM10.841,11.34A2.476,2.476,0,1,1,13.38,8.865,2.511,2.511,0,0,1,10.841,11.34Zm0-3.807A1.333,1.333,0,1,0,12.21,8.865,1.352,1.352,0,0,0,10.841,7.533Z" transform="translate(-1.098 -0.964)" fill="#b2becc"/>
  </g>
</svg>
