<svg xmlns="http://www.w3.org/2000/svg" width="20" height="20" viewBox="0 0 20 20"><g transform="translate(-2 -2)"><path d="M21.231,6.615H10.974a.769.769,0,1,1,0-1.538H21.231a.769.769,0,0,1,0,1.538Z" fill="#97a2ae"/><path d="M21.231,12.769H10.974a.769.769,0,1,1,0-1.538H21.231a.769.769,0,0,1,0,1.538Z" fill="#97a2ae"/><path d="M21.231,18.923H10.974a.769.769,0,1,1,0-1.538H21.231a.769.769,0,0,1,0,1.538Z" fill="#97a2ae"/><path d="M5.846,22H3.385a1.358,1.358,0,0,1-1.069-.316A1.357,1.357,0,0,1,2,20.616v-.924a3.73,3.73,0,0,1,.038-.7A1.994,1.994,0,0,1,3.61,17.424a3.449,3.449,0,0,1,.7-.039,2.5,2.5,0,0,0,.395-.009.461.461,0,0,0,.365-.363,2.533,2.533,0,0,0,.009-.4,2.543,2.543,0,0,0-.009-.4.46.46,0,0,0-.363-.362,2.545,2.545,0,0,0-.4-.009H2.769a.769.769,0,1,1,0-1.538H4.308a3.486,3.486,0,0,1,.7.039,1.992,1.992,0,0,1,1.569,1.57,3.756,3.756,0,0,1,.038.7,3.743,3.743,0,0,1-.038.7,1.991,1.991,0,0,1-1.571,1.571,3.454,3.454,0,0,1-.7.039,2.394,2.394,0,0,0-.4.009.461.461,0,0,0-.365.363,2.524,2.524,0,0,0-.009.4v.77H5.846a.769.769,0,0,1,0,1.538Z" fill="#97a2ae"/><path d="M5.846,9.692H2.769a.769.769,0,0,1,0-1.538h.769V3.538H2.769A.769.769,0,1,1,2.769,2H4A1.078,1.078,0,0,1,5.077,3.077V8.154h.769a.769.769,0,0,1,0,1.538ZM4,3.538H4Z" fill="#97a2ae"/></g></svg>