<svg xmlns="http://www.w3.org/2000/svg" width="20" height="20" viewBox="0 0 20 20">
  <g id="icon_ekyc" transform="translate(-2 -2)">
    <path id="Path_4431" data-name="Path 4431" d="M14.806,22a.7.7,0,0,1-.016-1.4c2.72-.063,3.906-.351,4.7-1.143.711-.709,1.013-1.732,1.115-3.775a.689.689,0,0,1,.731-.663.7.7,0,0,1,.662.732c-.1,2.005-.4,3.572-1.523,4.694-1.226,1.222-2.933,1.488-5.654,1.55ZM9.194,22H9.178c-2.721-.062-4.428-.328-5.654-1.55C2.4,19.328,2.1,17.761,2,15.756a.7.7,0,0,1,.662-.732.686.686,0,0,1,.731.663c.1,2.044.4,3.066,1.115,3.775.8.792,1.981,1.08,4.7,1.143A.7.7,0,0,1,9.194,22ZM21.3,8.977a.7.7,0,0,1-.695-.663c-.1-2.044-.4-3.068-1.115-3.776-.8-.792-1.981-1.081-4.7-1.142A.7.7,0,0,1,14.806,2h.016c2.72.062,4.427.328,5.654,1.55C21.6,4.672,21.9,6.238,22,8.245a.7.7,0,0,1-.662.731Zm-18.6,0H2.663A.7.7,0,0,1,2,8.245c.1-2.007.4-3.574,1.523-4.695C4.75,2.328,6.457,2.062,9.178,2A.7.7,0,1,1,9.21,3.4c-2.72.061-3.906.35-4.7,1.142C3.8,5.246,3.5,6.269,3.394,8.314A.7.7,0,0,1,2.7,8.977Z" fill="#97a2ae"/>
    <path id="Path_4432" data-name="Path 4432" d="M16.186,17.349a.694.694,0,0,1-.513-.225,4.852,4.852,0,0,0-3.58-1.519,5.238,5.238,0,0,0-3.774,1.528.7.7,0,0,1-1.01-.963,6.659,6.659,0,0,1,4.8-1.961,6.313,6.313,0,0,1,4.593,1.97.7.7,0,0,1-.513,1.17ZM11.992,12.7a3.024,3.024,0,1,1,3.027-3.023A3.028,3.028,0,0,1,11.992,12.7Zm0-4.651a1.628,1.628,0,1,0,1.631,1.628A1.631,1.631,0,0,0,11.992,8.047Z" fill="#97a2ae"/>
  </g>
</svg>
