<svg xmlns="http://www.w3.org/2000/svg" width="19.074" height="20" viewBox="0 0 19.074 20"><g transform="translate(-2.461 -2)"><path d="M10.6,16.419H6.884a.7.7,0,0,1,0-1.4H10.6a.7.7,0,0,1,0,1.4Zm3.72-4.652H6.884a.7.7,0,1,1,0-1.4h7.441a.7.7,0,1,1,0,1.4Z" fill="#97a2ae"/><path d="M14.649,21.168l-.146-.682Zm-1.12-1.119.683.146Zm.816-2.364-.494-.493Zm2.667,2.668-.493-.493Zm3.636-5.118.6-.349h0Zm-.559,2.041.494.493Zm.559-.627.6.349Zm-1.185-2.6.349-.6h0Zm-2.041.558.493.494Zm.626-.558-.349-.6h0ZM19.6,16.783,16.519,19.86l.987.986,3.077-3.077Zm-4.758,1.4L17.915,15.1l-.987-.987-3.077,3.077ZM14.5,20.486c-.163.035-.294.063-.406.083s-.187.031-.237.035-.048,0-.016,0A.354.354,0,0,1,14,20.7l-.986.987a1.166,1.166,0,0,0,.937.31,6.379,6.379,0,0,0,.846-.146ZM12.847,19.9a6.351,6.351,0,0,0-.146.846,1.167,1.167,0,0,0,.311.937L14,20.7a.363.363,0,0,1,.091.154c.008.033,0,.036.005-.015a2.046,2.046,0,0,1,.034-.238c.021-.112.049-.242.084-.405ZM19.6,15.1a3.176,3.176,0,0,1,.447.482l1.209-.7a4.092,4.092,0,0,0-.669-.771Zm.987,2.667A4.092,4.092,0,0,0,21.252,17l-1.209-.7a3.3,3.3,0,0,1-.447.482Zm-.54-2.185a.717.717,0,0,1,0,.717l1.209.7a2.113,2.113,0,0,0,0-2.112Zm.54-1.469a4.087,4.087,0,0,0-.771-.669l-.7,1.208a3.361,3.361,0,0,1,.482.448Zm-2.668.987a3.361,3.361,0,0,1,.482-.448l-.7-1.208a4.087,4.087,0,0,0-.771.669Zm1.9-1.656a2.11,2.11,0,0,0-2.113,0l.7,1.208a.717.717,0,0,1,.717,0ZM16.519,19.86a1.636,1.636,0,0,1-.784.389c-.177.045-.365.08-.576.117s-.433.072-.656.12L14.8,21.85c.187-.04.38-.071.6-.109s.449-.08.683-.14a3,3,0,0,0,1.426-.755Zm-2.307.335c.047-.223.085-.455.12-.657s.071-.4.116-.576a1.624,1.624,0,0,1,.39-.783l-.987-.987a3,3,0,0,0-.755,1.425c-.059.235-.1.47-.139.684s-.07.414-.11.6Z" fill="#97a2ae"/><path d="M11.07,22h-.931a.7.7,0,0,1,0-1.4h.931a.7.7,0,0,1,0,1.4Z" fill="#97a2ae"/><path d="M7.814,22h0c-2.069-.011-3.392-.085-4.327-1.021-1.022-1.022-1.022-2.528-1.022-5.262V9.664c0-2.734,0-4.24,1.022-5.262.779-.78,1.829-.959,3.38-1.006a.72.72,0,0,1,.718.676A.7.7,0,0,1,6.9,4.79c-1.4.042-2.035.2-2.434.6C3.857,6,3.857,7.226,3.857,9.664v6.051c0,2.439,0,3.662.613,4.276.514.514,1.407.6,3.347.612a.7.7,0,0,1,0,1.395ZM18.973,11.767a.7.7,0,0,1-.7-.7V9.664c0-2.438,0-3.662-.613-4.276-.4-.4-1.036-.556-2.434-.6a.7.7,0,0,1,.02-1.395h.021c1.551.047,2.6.226,3.38,1.006,1.022,1.022,1.022,2.528,1.022,5.262V11.07A.7.7,0,0,1,18.973,11.767Z" fill="#97a2ae"/><path d="M13.624,6.651H8.508A2.326,2.326,0,1,1,8.508,2h5.116a2.326,2.326,0,1,1,0,4.651ZM8.508,3.395a.931.931,0,0,0,0,1.861h5.116a.931.931,0,0,0,0-1.861Z" fill="#97a2ae"/></g></svg>