<svg xmlns="http://www.w3.org/2000/svg" width="16" height="18.286" viewBox="0 0 16 18.286">
  <g id="icon_password" transform="translate(-3.25 -2)">
    <path id="Path_5043" data-name="Path 5043" d="M14.5,16.186a.932.932,0,1,1-.009-1.86H14.5a.932.932,0,1,1,0,1.86Zm-4.991,0a.932.932,0,1,1-.009-1.86h.009a.932.932,0,1,1,0,1.86Z" transform="translate(-0.75 -1.165)" fill="#b2becc"/>
    <path id="Path_5044" data-name="Path 5044" d="M11.25,20.286c-1.415,0-2.754-.027-4.091-.081A3.738,3.738,0,0,1,3.5,17.2h0a18.823,18.823,0,0,1-.251-2.8A18.823,18.823,0,0,1,3.5,11.6,3.737,3.737,0,0,1,7.159,8.593c2.661-.11,5.52-.11,8.183,0A3.738,3.738,0,0,1,19,11.6a18.847,18.847,0,0,1,.251,2.8A18.823,18.823,0,0,1,19,17.2,3.739,3.739,0,0,1,15.341,20.2C14,20.259,12.665,20.286,11.25,20.286ZM4.86,17.033a2.417,2.417,0,0,0,2.362,1.954c2.632.108,5.422.108,8.057,0a2.417,2.417,0,0,0,2.362-1.954,17.757,17.757,0,0,0,.239-2.634,17.757,17.757,0,0,0-.239-2.634,2.418,2.418,0,0,0-2.362-1.955c-2.621-.106-5.438-.106-8.057,0A2.418,2.418,0,0,0,4.86,11.764,17.757,17.757,0,0,0,4.621,14.4a17.757,17.757,0,0,0,.239,2.634Z" fill="#b2becc"/>
    <path id="Path_5045" data-name="Path 5045" d="M15.107,9.907a.672.672,0,0,1-.643-.7V6.884A3.363,3.363,0,0,0,11.25,3.4,3.363,3.363,0,0,0,8.036,6.884V9.209a.645.645,0,1,1-1.286,0V6.884A4.709,4.709,0,0,1,11.25,2a4.709,4.709,0,0,1,4.5,4.884V9.209A.672.672,0,0,1,15.107,9.907Z" fill="#b2becc"/>
  </g>
</svg>
