<svg xmlns="http://www.w3.org/2000/svg" width="18.14" height="20" viewBox="0 0 18.14 20">
  <g id="icon_user" transform="translate(-2.93 -2)">
    <path id="Path_4441" data-name="Path 4441" d="M16.1,22H7.9A5.783,5.783,0,0,1,3.81,20.13a2.369,2.369,0,0,1-.865-2.03c.185-1.494,2.01-2.527,3.218-3.21.161-.092.309-.175.436-.251h0a10.692,10.692,0,0,1,10.8,0c.127.076.275.16.436.252,1.208.683,3.032,1.716,3.216,3.21a2.362,2.362,0,0,1-.864,2.029A5.783,5.783,0,0,1,16.1,22ZM7.313,15.838h0c-.135.08-.292.169-.462.266-.847.479-2.422,1.37-2.521,2.168-.012.094-.047.382.442.848A4.431,4.431,0,0,0,7.9,20.6h8.2a4.427,4.427,0,0,0,3.125-1.485c.49-.466.455-.754.443-.848-.1-.8-1.673-1.689-2.519-2.168-.171-.1-.328-.186-.464-.266A9.281,9.281,0,0,0,7.313,15.838Z" fill="#97a2ae"/>
    <path id="Path_4442" data-name="Path 4442" d="M12,11.768a4.884,4.884,0,1,1,4.884-4.884A4.89,4.89,0,0,1,12,11.768ZM12,3.4a3.488,3.488,0,1,0,3.488,3.488A3.491,3.491,0,0,0,12,3.4Z" fill="#97a2ae"/>
  </g>
</svg>
