<svg xmlns="http://www.w3.org/2000/svg" width="127.823" height="50" viewBox="0 0 127.823 50">
  <g id="logo_white" transform="translate(3615.34 -696.412)">
    <rect id="Rectangle_477" data-name="Rectangle 477" width="50" height="50" rx="10.273" transform="translate(-3615.34 696.412)" fill="#5d5fef"/>
    <g id="Group_14799" data-name="Group 14799" opacity="0.502">
      <path id="Path_5187" data-name="Path 5187" d="M-3567.806,707.036c-.78-.731-1.786-1.675-3.208-3.071l-.055.045.039-.055c-.064-.045-.418-.323-2.325-1.915l-.259-.223a3.105,3.105,0,0,0-2.213-.992l-.282.01a2.54,2.54,0,0,1-1.592-.528,8.077,8.077,0,0,0-.906-.505,9.622,9.622,0,0,0-2.907-.944h0a.545.545,0,0,0-.462.39.363.363,0,0,0,.143.408,2.925,2.925,0,0,0,1.053.5,9.345,9.345,0,0,1,2.822,1.413,2.863,2.863,0,0,1,1.174,1.459,10.562,10.562,0,0,0,2.3,3.176,7.7,7.7,0,0,1,2.144,3.15c.149.719.3,1.3.439,1.854a10.427,10.427,0,0,1,.47,3.253,7.618,7.618,0,0,0,.181,1.644,12.2,12.2,0,0,1,.233,1.876c.021.616.334.984.625.984a.388.388,0,0,0,.309-.166c.111-.141.341-.585.087-1.642a11.227,11.227,0,0,1-.382-3.219,5.551,5.551,0,0,0-.323-2.2,7.34,7.34,0,0,1-.41-2.435,1.927,1.927,0,0,0-.432-1.441,30.945,30.945,0,0,0-2.752-2.945c-1.306-1.267-1.907-1.908-1.291-2.622a.555.555,0,0,1,.44-.208c.49,0,1.053.571,1.634,1.238.056.062.1.114.133.144.319.312.643.619.966.927l.246.234c.351.333.7.666,1.047,1.007a11.8,11.8,0,0,1,.925,1.038,3.905,3.905,0,0,0,1.446,1.249,4.5,4.5,0,0,1,1.63,1.207c.85,1.1,1.394,1.831,1.78,2.387v-1.977A23.559,23.559,0,0,0-3567.806,707.036Z" fill="#fff"/>
      <path id="Path_5188" data-name="Path 5188" d="M-3610.323,701.7a4.266,4.266,0,0,0,1.317-1.765,5.191,5.191,0,0,1,2.548-3.075c.185-.132.394-.268.61-.4a10.231,10.231,0,0,0-2.269.421,2.587,2.587,0,0,1-1.736.916,1.481,1.481,0,0,1-.226-.016l-.068-.01a10.327,10.327,0,0,0-2.1,1.579.65.65,0,0,0,.077.017,1.04,1.04,0,0,0,.488-.131c.078-.044.152-.092.237-.147a1.619,1.619,0,0,1,.64-.294l.2-.015a.729.729,0,0,1,.693.4.763.763,0,0,1-.183.832,3.054,3.054,0,0,1-.819.758c-1,.529-1.427,1.176-3.017,3.595l-.075.113c-.371.565-.8,1.225-1.32,1.994,0,.074-.012.146-.012.221v2.292a5.125,5.125,0,0,1,.525-1.365A22.815,22.815,0,0,1-3610.323,701.7Z" fill="#fff"/>
      <path id="Path_5189" data-name="Path 5189" d="M-3569.99,699.21l.121.059.312.139a.474.474,0,0,0,.326-.193.565.565,0,0,0,.173-.428l0-.015a10.278,10.278,0,0,0-2.74-1.622,8.152,8.152,0,0,0,1.472,1.85A1.609,1.609,0,0,0-3569.99,699.21Z" fill="#fff"/>
      <path id="Path_5190" data-name="Path 5190" d="M-3609.952,743.089c-.582-.7-2.735-4.563-2.863-4.817a8.39,8.39,0,0,0-1.641-2.3,3,3,0,0,1-.884-1.41v1.583c0,.322.02.639.049.954a.728.728,0,0,1,.29-.061.94.94,0,0,1,.825.568c.08.164.248.482.461.883.424.8,1,1.9,1.361,2.688a8.265,8.265,0,0,0,1.854,2.82,4.5,4.5,0,0,1,1.019,1.413,10.2,10.2,0,0,0,1.637.617c-.224-.283-.428-.587-.661-.942A20.694,20.694,0,0,0-3609.952,743.089Z" fill="#fff"/>
      <path id="Path_5191" data-name="Path 5191" d="M-3614.528,740.147a10.31,10.31,0,0,0,.593,1.16,4.221,4.221,0,0,0-.53-1.068Z" fill="#fff"/>
      <path id="Path_5192" data-name="Path 5192" d="M-3598.741,696.991c-.149.477-.152.486-4.323,2.636l-.168.086a3.837,3.837,0,0,0-2.048,2.409.858.858,0,0,0,.211.9,2.077,2.077,0,0,0,1.559.534,5.969,5.969,0,0,0,2.383-.551,27.976,27.976,0,0,0,2.868-1.631,5.22,5.22,0,0,1,2.437-1.1,1.629,1.629,0,0,1,.847.245.945.945,0,0,1,.448.978c-.023.577-.825.866-1.265.866l-.2-.005c-.558,0-.88.177-1.971.776-.71.39-1.782.979-3.462,1.8a2.5,2.5,0,0,1-1.164.329,4.375,4.375,0,0,1-.507-.038,8.544,8.544,0,0,0-1.058-.065l-.5.037-.04.04a1.871,1.871,0,0,1-.314.245,1.088,1.088,0,0,0-.41.4,2.882,2.882,0,0,1-.484.617,13.138,13.138,0,0,0-1.866,2.571c-.487.843-.88,1.5-1.2,2.024l.128.078-.181.011c-.865,1.438-1.1,1.824-1.072,2.438a.653.653,0,0,0,.6.636.52.52,0,0,0,.429-.25,2.7,2.7,0,0,0,.374-.817,4.341,4.341,0,0,1,.21-.551c.11-.221.231-.436.376-.693s.289-.509.411-.774a13.589,13.589,0,0,1,3.36-4.965.532.532,0,0,1,.329-.109.674.674,0,0,1,.6.4c.068.152.173.564-.312,1.106a10.655,10.655,0,0,0-1.858,3.075c-.262.554-.577,1.219-1,2.051-.009.018-1.254,2.436-1.31,2.534-.164.26-.346.509-.529.761a3.8,3.8,0,0,0-1.057,2.725,8.432,8.432,0,0,0,.406,1.631,5.156,5.156,0,0,1,.361,2.575c.015.153.024.314.033.483a4.813,4.813,0,0,0,.156,1.169,9.624,9.624,0,0,0,2.4,4.177c.35.341.629.655.894.955a5.747,5.747,0,0,0,.4.425,1.4,1.4,0,0,0,1.01.335c.182,0,.367-.017.587-.036.177-.015.352-.029.524-.029a1.506,1.506,0,0,1,1.5.9.536.536,0,0,1-.1.657.791.791,0,0,1-.631.271,2.536,2.536,0,0,1-.638-.112,1.91,1.91,0,0,0-.455-.088c-.2,0-.255.13-.278.325-.025.225.069.375.334.536a3.269,3.269,0,0,0,1.571.387,3.607,3.607,0,0,1,1.211.228c.268.117.874.477,1.58.9l1.058.63a.966.966,0,0,1,.493,1.186.924.924,0,0,1-.8.346,1.093,1.093,0,0,1-.336-.049c-.062-.029-.858-.452-.918-.485a9.256,9.256,0,0,0-2.722-1.2c-.239-.065-.506-.137-.849-.244a3.691,3.691,0,0,1-2.166-1.845,6.166,6.166,0,0,0-1.132-1.411,8.8,8.8,0,0,1-2.127-2.428c-1.694-2.741-2.265-3.665-2.271-5.293l0-.844a4.091,4.091,0,0,0-.157-1.394c-.086-.382-.218-.964-.418-1.954a3.917,3.917,0,0,1,.219-2.867,1.19,1.19,0,0,0,.039-1.2,3.558,3.558,0,0,0-1.859-1.66,2.137,2.137,0,0,1-1.1-.852c-.214-.363-.592-.731-.9-.731h-.064l-.038.026c-.355.242-.343.316-.136,1.563l.05.274a2.615,2.615,0,0,1,.026,1.28,1.337,1.337,0,0,0,.1.812.578.578,0,0,0,.457.415c.176,0,.316-.176.383-.48a5.056,5.056,0,0,0,.1-.584c.038-.35.367-.778.716-.785a1.082,1.082,0,0,1,.992.905,5.036,5.036,0,0,1-.162,1.428,2.754,2.754,0,0,0-.017,1.6,15.845,15.845,0,0,1,.51,2.777l.079.633a14.062,14.062,0,0,1,.1,1.816,3.835,3.835,0,0,0,.53,2.4,27.491,27.491,0,0,1,1.985,3.311,5.789,5.789,0,0,0,1.156,1.688c.657.678,1.179,1.232,1.612,1.692,1.528,1.625,1.938,2.063,3.235,2.581,1.214.488,2.128.869,2.831,1.162l.141.059a7.808,7.808,0,0,0,2.342.8,3.14,3.14,0,0,0,.787-.151c.207-.052.459-.117.784-.187a3.192,3.192,0,0,1,.68-.08,2.611,2.611,0,0,1,1.664.726c.171.125.361.264.58.4a2.678,2.678,0,0,0,.362.186,3.43,3.43,0,0,1,.353.179.351.351,0,0,0,.177.057.558.558,0,0,0,.345-.208c.187-.184.2-.288.068-.536a1.969,1.969,0,0,0-.3-.424,5.108,5.108,0,0,0-2.386-1.412,3.057,3.057,0,0,1-1.446-.786,11.372,11.372,0,0,0-2.169-1.8,5.488,5.488,0,0,1-1.949-1.88,11.816,11.816,0,0,0-.682-1.03,3.961,3.961,0,0,1-.8-1.531c-.036-.187-.06-.368-.081-.536-.077-.6-.131-.883-.522-.9-.328,0-.391.222-.494.684a4.11,4.11,0,0,1-.135.509.862.862,0,0,1-.8.638,1.042,1.042,0,0,1-.86-.505,1.014,1.014,0,0,1-.029-1.009,3.819,3.819,0,0,1,.541-.732c.493-.57.777-.944.421-1.426l-.216-.306c-.1-.144-.206-.289-.32-.426a.969.969,0,0,1-.192-.953c.107-.269.4-.442.874-.516a1.787,1.787,0,0,1,.2-.045c.3-.053.493-.2.527-.4a.582.582,0,0,0-.343-.574c-.145-.082-.284-.148-.464-.235a2.466,2.466,0,0,1-1.542-1.621,5.461,5.461,0,0,1-.327-1.784,1.74,1.74,0,0,0-.674-1.6,1.669,1.669,0,0,1-.272-.267,1.579,1.579,0,0,1-.273-2l.836-1.47a9.861,9.861,0,0,0,1.384-2.856,4.769,4.769,0,0,1,.992-2.156c.213-.3.458-.643.737-1.121a4.506,4.506,0,0,1,2.5-1.948c.53-.251,1.189-.563,2.019-1.02a12.993,12.993,0,0,1,2.739-1.127,4.116,4.116,0,0,0,2.1-1.137,2.906,2.906,0,0,1,2.014-.9,1.366,1.366,0,0,1,.276.026,33.656,33.656,0,0,1,9.9,5.012,4.728,4.728,0,0,1,1.249,1.824,11.138,11.138,0,0,0,.738,1.377,3.8,3.8,0,0,0,.322.4,8.36,8.36,0,0,1,1.669,2.834,3.205,3.205,0,0,0,.39.685.557.557,0,0,0,.476.267.564.564,0,0,0,.263-.067c.449-.212.237-.726-.177-1.616a12.843,12.843,0,0,0-1.589-2.735c-.248-.34-.542-.745-.937-1.331a4.179,4.179,0,0,1-.232-.394,9.48,9.48,0,0,0-2.042-2.375,11.825,11.825,0,0,0-2.537-1.678l-.318-.179c-3.962-2.232-4.8-2.358-5.358-2.442a2.551,2.551,0,0,1-1.053-.371.754.754,0,0,1-.353-.662.553.553,0,0,1,.248-.5,1.748,1.748,0,0,1,.883-.218,13.256,13.256,0,0,1,6.1,2.515,13.777,13.777,0,0,0,1.726,1.06,10.271,10.271,0,0,1,3.621,3.372c.384.521.728.963,1.042,1.368a12.015,12.015,0,0,1,2.639,4.977,2.988,2.988,0,0,1,.079,1.569,12.776,12.776,0,0,0,.517,3.859,10.56,10.56,0,0,1,.378,2.272.917.917,0,0,1-.833.864.655.655,0,0,1-.233-.043c-.691-.271-.752-.843-.838-1.636l-.039-.349c-.044-.369-.117-.735-.2-1.144-.07-.348-.138-.694-.186-1.047a1.776,1.776,0,0,0-1.136-1.513,4.285,4.285,0,0,1-1.991-2.132,10.305,10.305,0,0,0-.685-1.178l-.293-.467a2.091,2.091,0,0,0-1.673-1.03,6.278,6.278,0,0,1-2.192-.842,14.87,14.87,0,0,0-2.08-1.072,12.42,12.42,0,0,1-1.746-.9,4.428,4.428,0,0,0-1.933-.874,1.256,1.256,0,0,0-.778.365,4.378,4.378,0,0,1-1.2.674,1.693,1.693,0,0,1-.6.106,3.689,3.689,0,0,1-.71-.092,3.994,3.994,0,0,0-.807-.1,3.09,3.09,0,0,0-1.207.268,16.852,16.852,0,0,0-3.9,2.347,6.551,6.551,0,0,1-3.147,1.6,2.492,2.492,0,0,0-1.837,1.22l-.243.4c-1.065,1.76-1.094,1.834-1.055,2.651.009.178.164.358.493.358a.745.745,0,0,0,.271-.06,1.829,1.829,0,0,0,.536-.977c.161-.579.362-1.3,2.033-2.714a.7.7,0,0,1,.464-.168,1.064,1.064,0,0,1,.441.1c.317.142.319.453.294.758a1.279,1.279,0,0,1-.5.843,6.2,6.2,0,0,0-1.245,1.783,16.679,16.679,0,0,1-1.033,1.715,2.628,2.628,0,0,0-.134,2.61.837.837,0,0,0,.713.546h.011a.512.512,0,0,0,.365-.54l.011-.208a1.683,1.683,0,0,0-.018-.53c-.323-1.2.682-2.756,1.657-4.258a10.072,10.072,0,0,0,1.333-2.472c.3-1.2,1.682-2.121,3.457-3.207a5.007,5.007,0,0,1,2.731-.851c.2,0,.375.012.58.026.129.009.244.018.358.018l.249-.016.4.041a4.226,4.226,0,0,0,1.6-.608,1.417,1.417,0,0,1,.656-.174,1.968,1.968,0,0,1,.994.354l.173.1a35.057,35.057,0,0,0,3.455,1.7c.672.295,1.509.662,2.81,1.272a3.928,3.928,0,0,1,1.744,1.73l.134.216a8.349,8.349,0,0,0,1.882,2.279c.216.187.445.387.72.669a4.1,4.1,0,0,1,.761,2.247c.043.3.085.585.143.823l.089.367c.341,1.431.455,1.718,2.034,2.278a1.354,1.354,0,0,0,.443.086.912.912,0,0,0,.824-.617c.858-1.76.754-2.184.447-3.442a21.681,21.681,0,0,1-.595-3.536c-.027-.288-.031-.522-.035-.787a11.233,11.233,0,0,0-.912-4.086,9.5,9.5,0,0,0-2.037-3.013,22.367,22.367,0,0,1-1.689-2.187,6.316,6.316,0,0,0-2.578-2.505l-.5-.227a6.941,6.941,0,0,1-2.647-1.777,3.82,3.82,0,0,0-1.947-1.077c-.338-.112-.72-.238-1.164-.412a6.221,6.221,0,0,0-2.668-.466l-1.1,0a3.234,3.234,0,0,1-2.565-1.411l-.231-.239a2.343,2.343,0,0,0-.236-.19h-5.408A.738.738,0,0,1-3598.741,696.991Zm-7.387,24.574a1.012,1.012,0,0,1,.726.288.917.917,0,0,1,.253.682,1.454,1.454,0,0,1-.19.8,1.452,1.452,0,0,0,.086,1.869,1.871,1.871,0,0,1,.334,1.875.76.76,0,0,1-.667.433c-.2,0-.684-.089-1.014-.925l-.124-.309c-.544-1.36-1.221-3.054-.387-4.2A1.214,1.214,0,0,1-3606.128,721.565Zm-.382-2.831.2.938-.068.281a3.178,3.178,0,0,1-.175.586.65.65,0,0,1-.619.4,1.046,1.046,0,0,1-.979-.859l-.1-.586c-.18-1.017-.208-1.173.064-1.744l.135-.193a.707.707,0,0,1,.516-.22.738.738,0,0,1,.521.223C-3606.707,717.851-3606.7,717.884-3606.51,718.734Zm10.483-22.025.018.15a2.813,2.813,0,0,1,2.2.939,4.073,4.073,0,0,0,1.305.889,2.1,2.1,0,0,1,.353.226.977.977,0,0,1,.5,1.069,1.274,1.274,0,0,1-1.131.743,2.539,2.539,0,0,1-1.5-.947,2.655,2.655,0,0,0-1.672-1.022,1.8,1.8,0,0,0-1.1.464,30.973,30.973,0,0,1-5.281,3.138,1.746,1.746,0,0,1-.742.188.863.863,0,0,1-.866-.56.806.806,0,0,1,.353-.9,2.585,2.585,0,0,1,.838-.448,15.578,15.578,0,0,0,3.272-1.722,6.838,6.838,0,0,0,1.363-1.1,2.525,2.525,0,0,1,2.1-.962Z" fill="#fff"/>
      <path id="Path_5193" data-name="Path 5193" d="M-3603.891,697.169a10.448,10.448,0,0,0-2.639,1.784,7.391,7.391,0,0,0-.849,1.422,7.539,7.539,0,0,1-1.457,2.168,18.564,18.564,0,0,0-3.04,3.35l-.223.33a12.259,12.259,0,0,0-1.518,2.713,1.593,1.593,0,0,0,.386,2c.114.114.218.237.324.363a2.776,2.776,0,0,0,1.02.859.576.576,0,0,0,.248.057.489.489,0,0,0,.474-.359c.086-.287-.048-.742-.682-1.157a1.581,1.581,0,0,1-.617-1.9c.36-1.263,3.29-4.905,4.49-5.757a3.943,3.943,0,0,0,1.337-1.9,5.583,5.583,0,0,1,3.115-3.068l.69-.379,1.41-.811c.332-.192.606-.351.834-.48h-1.939C-3602.92,696.629-3603.365,696.876-3603.891,697.169Z" fill="#fff"/>
      <path id="Path_5194" data-name="Path 5194" d="M-3571.093,745.046a.716.716,0,0,0-.382-.126.443.443,0,0,0-.372.189.612.612,0,0,0-.062.561l.014.038a10.031,10.031,0,0,0,1.018-.458A.962.962,0,0,0-3571.093,745.046Z" fill="#fff"/>
      <path id="Path_5195" data-name="Path 5195" d="M-3604.429,744.95a9.878,9.878,0,0,1-3.814-4.1,15.256,15.256,0,0,0-1.705-2.492,8.259,8.259,0,0,1-1.176-1.743c-.211-.491-.4-.9-.579-1.305-.633-1.4-.824-1.821-.4-2.442a.728.728,0,0,1,.623-.323,3.474,3.474,0,0,1,1.505.632,9.383,9.383,0,0,1,2.533,2c.323.33.73.745,1.316,1.3a4.864,4.864,0,0,0,1.983,1.156c.284.11.61.236,1,.4.542.229,1.022.44,1.456.63l.135.059a11.413,11.413,0,0,0,4.675,1.367,9.012,9.012,0,0,1,2.981.687,7.2,7.2,0,0,0,2.615.585s.633-.017.843-.017l1.034.007a6.306,6.306,0,0,0,1.715-.173,18.2,18.2,0,0,1,2.939-.628,4.537,4.537,0,0,0,2.417-.929c.712-.479,1.167-.744,1.519-.949,1.065-.623,1.129-.66,4.609-4.471a14.4,14.4,0,0,0,1.724-2.41c.234-.378.495-.8.815-1.289.3-.465.576-.856.821-1.207a6.776,6.776,0,0,0,1.414-2.847,23.864,23.864,0,0,1,1.063-4.161,1.957,1.957,0,0,0,.174-1.153.6.6,0,0,0-.347-.458.509.509,0,0,0-.378.2,1.432,1.432,0,0,0-.279.573,13.858,13.858,0,0,1-.724,1.877,6.289,6.289,0,0,0-.432,2.093c-.01.123-.018.224-.03.3a8.262,8.262,0,0,1-1.9,3.9c-.394.537-.8,1.091-1.208,1.767a22.55,22.55,0,0,1-4.425,4.964,26.329,26.329,0,0,1-3.564,2.366,4.175,4.175,0,0,1-2.272.645,2.688,2.688,0,0,0-1.374.316,3.918,3.918,0,0,1-1.8.441,3.827,3.827,0,0,1-.76-.075,3.107,3.107,0,0,0-.52-.044,7.775,7.775,0,0,0-1.155.121,4.051,4.051,0,0,1-.6.043,4.781,4.781,0,0,1-2.317-.684c-.134-.072-.258-.138-.376-.193a3.427,3.427,0,0,0-1.441-.254c-.205,0-.39.008-.711.024l-.214,0a9.937,9.937,0,0,1-4.028-1.118c-.486-.208-1-.43-1.578-.653a12.522,12.522,0,0,1-5.066-3.618l-.824-.83a4.786,4.786,0,0,0-.408-.351,3.466,3.466,0,0,1-1.117-1.326c-.126-.269-.238-.553-.371-.892a7.7,7.7,0,0,0-1.967-3.162,3.041,3.041,0,0,1-.89-2.781v-.594a15.2,15.2,0,0,0-.1-2.672,8.644,8.644,0,0,1-.106-1.253,4.975,4.975,0,0,0-.2-1.212.592.592,0,0,0-.526-.459.339.339,0,0,0-.291.159,1.372,1.372,0,0,0-.139,1.225,4.381,4.381,0,0,1,.1.656c.293,5.288.05,6.526-.111,7.346a3.774,3.774,0,0,0-.092,1.131c.019.34.013.627.008.895a3.235,3.235,0,0,0,.461,2.018,4.255,4.255,0,0,1,.683,1.956,2.4,2.4,0,0,0,.332,1.093l.75,1.349c.581,1.05.581,1.05,1.349,2.252.43.672,1.1,1.72,2.243,3.536a24.013,24.013,0,0,0,1.585,2.145l.227.284a6.919,6.919,0,0,0,2.745,2.156l.113.06h2.374A17.584,17.584,0,0,0-3604.429,744.95Zm-8.748-13.8a16.59,16.59,0,0,1-.69-2.327,1.06,1.06,0,0,1,.262-.792.607.607,0,0,1,.435-.184.9.9,0,0,1,.734.475c.128.2.883,1.858.95,2.006.285.625.457,1-.049,1.687a.5.5,0,0,1-.412.171A1.417,1.417,0,0,1-3613.177,731.146Z" fill="#fff"/>
      <path id="Path_5196" data-name="Path 5196" d="M-3565.55,732.668a9.946,9.946,0,0,1-2.186,4.541,5.132,5.132,0,0,0-.628.936,3.016,3.016,0,0,1-1.353,1.444,8.3,8.3,0,0,0-2.787,2.25l-.784.792a2.12,2.12,0,0,1-1.547.733,3.954,3.954,0,0,1-.82-.112,3.762,3.762,0,0,0-.791-.112,2.388,2.388,0,0,0-.753.14,5.136,5.136,0,0,1-1.6.632,3.423,3.423,0,0,0-1.524.7,4.593,4.593,0,0,1-3.372,1.226c-.6.056-1.353.128-2.363.27-.018,0-1.9.264-2.518.268a4.629,4.629,0,0,0-1.04-.1h0l-.914.015c-.178,0-.356-.005-.533-.019a6.574,6.574,0,0,1-3.58-1.07,5.8,5.8,0,0,0-2.616-.967,3.158,3.158,0,0,0-.476-.039,3.808,3.808,0,0,0-.649.064,3.5,3.5,0,0,1-.579.059,3.36,3.36,0,0,1-1.59-.5c-1.117-.6-1.912-1-2.6-1.342a7.373,7.373,0,0,1-1.988-1.22.743.743,0,0,1-.231-.822.691.691,0,0,1,.658-.428.963.963,0,0,1,.266.041c.174.049,1.422.667,2.743,1.329l.863.438a4.335,4.335,0,0,0,2.054.678,11.3,11.3,0,0,1,4.93,1.225,7.126,7.126,0,0,0,3.616.864,28.386,28.386,0,0,0,5.259-.659l.21-.042a4.862,4.862,0,0,1,.979-.131,2.232,2.232,0,0,1,.563.068.962.962,0,0,0,.247.031,1.914,1.914,0,0,0,.965-.334,3.234,3.234,0,0,0,.684-.563,4,4,0,0,1,2.222-1.178,2.1,2.1,0,0,0,1.33-.719,3.533,3.533,0,0,0,.468-.791,6.893,6.893,0,0,1,1.626-2.326,14.273,14.273,0,0,0,2.334-2.78,1.79,1.79,0,0,1,.4-.458,2.966,2.966,0,0,0,1.14-1.816,6,6,0,0,1,.994-2.074,8.729,8.729,0,0,1,.68-.778,3.593,3.593,0,0,0,1.089-1.843l.065-.264a29.3,29.3,0,0,0,.956-4.662,5.748,5.748,0,0,1,.407-1.649,5.625,5.625,0,0,0,.429-2.658,9.293,9.293,0,0,0-.5-3.359c-.038-.122-.065-.251-.092-.378a2.5,2.5,0,0,0-.135-.486.942.942,0,0,1,.076-.766.587.587,0,0,1,.584-.346.659.659,0,0,1,.449.156,1.325,1.325,0,0,1,.394.552l.076.262c.3,1.043.613,2.122.854,3.211a4,4,0,0,1,.042,1.09,3.5,3.5,0,0,0,.108,1.29v-5.562a6.286,6.286,0,0,0-1.577-2.222,5.58,5.58,0,0,1-1.125-1.581c-.362-.658-.675-1.227-1.049-1.227a.529.529,0,0,0-.267.089c-.382.238-.251.541.083,1.2a3.916,3.916,0,0,1,.547,2.581,4.925,4.925,0,0,0,.155,2.574,5.7,5.7,0,0,1,.267,2.139c-.437,4.168-.526,4.487-.765,5.335-.127.453-.3,1.073-.6,2.606a7.857,7.857,0,0,1-1.372,3.393,18.521,18.521,0,0,0-1.971,3.211,6.25,6.25,0,0,1-.3.559,22.967,22.967,0,0,1-3.037,3.662,9.331,9.331,0,0,0-1.6,1.938,3.871,3.871,0,0,1-2.025,1.657,7.047,7.047,0,0,0-1.749,1.043,2.871,2.871,0,0,1-2.095.788,5.748,5.748,0,0,0-1.009.105c-.3.064-.626.139-.967.221a17.764,17.764,0,0,1-4.213.614,11.6,11.6,0,0,1-2.144-.2,8.039,8.039,0,0,1-1.778-.6,9.319,9.319,0,0,0-3.205-.869,11.135,11.135,0,0,1-4.578-1.289,12.948,12.948,0,0,0-3.487-1.342,2.247,2.247,0,0,1-1.291-.635,24.756,24.756,0,0,1-2.1-2.259,3.072,3.072,0,0,0-1.146-1,.321.321,0,0,0-.295.2.658.658,0,0,0,.122.684c1.221,1.524,1.791,2.138,2.158,2.533.178.194.3.329.426.493a7.209,7.209,0,0,1,.771,1.405,5.2,5.2,0,0,0,1.323,2,8.2,8.2,0,0,0,2.155,1.3,11.374,11.374,0,0,1,2.407,1.4,2.136,2.136,0,0,0,1.313.592,2.1,2.1,0,0,0,.732-.175,2.978,2.978,0,0,1,1.057-.22,5.439,5.439,0,0,1,2.776,1.075l.032.018h13.935a6.713,6.713,0,0,0,.863-.468,7.62,7.62,0,0,1,2.328-.986,5.741,5.741,0,0,0,.686-.22,3.083,3.083,0,0,1,1.226-.275,3.178,3.178,0,0,1,1.135.24,1.908,1.908,0,0,0,.6.147c.165,0,.372-.047.66-.391.317-.383,2.211-2.407,2.5-2.717a5.927,5.927,0,0,1,1.522-1.037,4.41,4.41,0,0,0,2.465-2.455,9.315,9.315,0,0,1,.741-1.542l.139-.25c.278-.5.472-.88.624-1.206v-3.563A6.022,6.022,0,0,0-3565.55,732.668Z" fill="#fff"/>
      <path id="Path_5197" data-name="Path 5197" d="M-3590.351,734.363a6.924,6.924,0,0,0,1.277-.191,8.15,8.15,0,0,1,2.224-.349l.937.017.406-.009c1.566-.056,4.084-2.14,5.373-3.6.092-.107,2.118-2.638,2.447-3.262.451-.864.449-.892.355-2.385l-.071-1.222a8.837,8.837,0,0,0-.587-3.612l-.226-.787a4.675,4.675,0,0,0-1.262-2.119,19.5,19.5,0,0,1-1.34-1.66c-1.393-1.938-2.17-2.275-5.441-3.691l-1.8-.787a2.681,2.681,0,0,0-1.083-.3,3.4,3.4,0,0,0-.662.091,11.552,11.552,0,0,1-2.548.236h-.248a7.277,7.277,0,0,0-4.9,2.918c-.424.694-.8,1.274-1.166,1.828-1.359,2.071-1.979,3.018-1.942,6a5.226,5.226,0,0,1-.64,2.452c-.389.819-.646,1.36.078,2.159a4.88,4.88,0,0,1,1.119,2.152,4.753,4.753,0,0,0,1.138,2.157,21.233,21.233,0,0,0,4.524,3.815,3.2,3.2,0,0,0,1.71.535,5.326,5.326,0,0,0,1.24-.194A6.958,6.958,0,0,1-3590.351,734.363Zm-4.186-1.554-.159-.1a16.541,16.541,0,0,1-3.477-3.05,4.32,4.32,0,0,1-.978-1.932,8.11,8.11,0,0,0-.66-1.748,2.129,2.129,0,0,1-.238-1.961,7.026,7.026,0,0,1,.294-.67,2.9,2.9,0,0,0,.235-2.14,7.4,7.4,0,0,1,1.424-4.909c2.693-4.308,4.849-4.423,6.936-4.533l.618-.034.141.014,0,.031.82-.012a5.578,5.578,0,0,1,2.579.638l1.078.467c2.653,1.138,3.131,1.343,5.806,5.221a10.336,10.336,0,0,1,1.654,4.949,4.5,4.5,0,0,1-.039,1.112,3.69,3.69,0,0,0-.042.678,3.808,3.808,0,0,1-.965,2.8c-.513.613-.844,1.056-1.116,1.419-.783,1.049-1.047,1.4-3.6,3.082a4.283,4.283,0,0,1-2.39.645,7.181,7.181,0,0,1-1.585-.187,1.916,1.916,0,0,0-.453-.056,2.015,2.015,0,0,0-1.11.4,3.188,3.188,0,0,1-1.879.561C-3593.432,733.448-3593.595,733.383-3594.537,732.809Z" fill="#fff"/>
      <path id="Path_5198" data-name="Path 5198" d="M-3567.514,702.669a3.012,3.012,0,0,0-.426-.327c-.086-.059-.179-.125-.375-.277a7.658,7.658,0,0,0-1.8-1.153,7.345,7.345,0,0,1-3.253-2.663c-.472-.619-.845-1.109-1.511-1.144a2.831,2.831,0,0,0-.9.192,3.35,3.35,0,0,1-1.078.22,2.92,2.92,0,0,1-1.5-.479,5.116,5.116,0,0,0-1.457-.626h-10.658a1.868,1.868,0,0,0,.394.1,12.33,12.33,0,0,0,1.632.107,6.854,6.854,0,0,1,3.373.744,2.794,2.794,0,0,0,1.284.294,9.18,9.18,0,0,0,1.672-.227l.749-.143.179.02.006.057.44-.018a1.406,1.406,0,0,1,.352.038,10.6,10.6,0,0,1,2.16.795,4.063,4.063,0,0,0,1.951.527c.117,0,.6-.024.607-.024.858,0,1.291.382,2.08,1.08a19.876,19.876,0,0,0,3.167,2.352,22.467,22.467,0,0,1,3.467,3.158c.566.582,1.1,1.136,1.613,1.609v-.2a10.291,10.291,0,0,0-.147-1.668c-.268-.31-.531-.623-.784-.928C-3566.714,703.551-3567.133,703.045-3567.514,702.669Z" fill="#fff"/>
      <path id="Path_5199" data-name="Path 5199" d="M-3578.453,730.855c-1.285,2.011-4.035,3.831-6.181,4.865a1.437,1.437,0,0,1-.647.157,2.371,2.371,0,0,1-.883-.223,1.946,1.946,0,0,0-.723-.19.5.5,0,0,0-.448.184.564.564,0,0,0,.01.537,2.278,2.278,0,0,0,.593.736l.166.156a1.294,1.294,0,0,0,.907.456,3.6,3.6,0,0,0,1.573-.681c.355-.212.762-.452,1.243-.7,3.321-1.713,5.4-4.8,6.519-6.453.272-.4.488-.724.655-.928a6.5,6.5,0,0,0,1.2-1.926l.092-.256a5.009,5.009,0,0,0,.4-1.739c.057-.38-.142-.745-.647-1.183a1.079,1.079,0,0,0-.626-.179.554.554,0,0,0-.282.057c-.339.227-.225.593,0,1.171a1.656,1.656,0,0,1,.158,1.343l-.127.271a14.613,14.613,0,0,1-1.433,2.509c-.2.287-.425.563-.665.864A12.866,12.866,0,0,0-3578.453,730.855Z" fill="#fff"/>
      <path id="Path_5200" data-name="Path 5200" d="M-3602.127,710.644h.017l.179-.047a6.593,6.593,0,0,0,1.154-.872,19.72,19.72,0,0,1,5.807-3.525,2.947,2.947,0,0,1,1.185-.281,3.673,3.673,0,0,1,.867.131,5.657,5.657,0,0,0,.991.166.466.466,0,0,0,.483-.329c.075-.2-.025-.338-.237-.515a3.2,3.2,0,0,0-1.948-.737,1.93,1.93,0,0,0-.728.133c-2.01.795-6.718,2.657-8.151,5.242a.436.436,0,0,0,0,.4A.427.427,0,0,0-3602.127,710.644Z" fill="#fff"/>
      <path id="Path_5201" data-name="Path 5201" d="M-3588.456,705.279a12.5,12.5,0,0,1,1.5.648c.257.154.518.306.785.438a18.768,18.768,0,0,1,3.8,2.258c.181.145.242.194.332.194l.31-.021c.175,0,.272-.111.355-.5-.318-.9-3.271-2.6-8.777-5.05l-.42-.19a1.584,1.584,0,0,0-.63-.158.555.555,0,0,0-.473.2.424.424,0,0,0-.053.393C-3591.558,704.023-3590.087,704.639-3588.456,705.279Z" fill="#fff"/>
      <path id="Path_5202" data-name="Path 5202" d="M-3568.475,742.14a2.016,2.016,0,0,0-1.285.971.917.917,0,0,0,.213,1.306,10.218,10.218,0,0,0,1.291-1.115c.012-.042.022-.084.035-.127C-3568.113,742.8-3567.99,742.379-3568.475,742.14Z" fill="#fff"/>
      <path id="Path_5203" data-name="Path 5203" d="M-3610.294,709.839l.158-.024.034-.032a2.687,2.687,0,0,0,.667-.986,9.4,9.4,0,0,1,2-2.8c.209-.227.4-.412.564-.573.427-.419.662-.65.627-.975,0-.21-.04-.426-.332-.426l-.117.007c-.328.056-.52.266-.858.665-.132.156-.279.329-.46.513a15.775,15.775,0,0,0-2.765,3.8c-.11.258.021.471.214.735A.384.384,0,0,0-3610.294,709.839Z" fill="#fff"/>
      <path id="Path_5204" data-name="Path 5204" d="M-3590.127,735.937l-.28-.079c-.191,0-.357.126-.624.541.01.321.407.711.82,1.09a2.865,2.865,0,0,1,.278.275,1.708,1.708,0,0,0,1.223.726c.37,0,.6-.261.61-.74a.921.921,0,0,0-.129-.283C-3589.18,736.347-3589.233,736.3-3590.127,735.937Z" fill="#fff"/>
      <path id="Path_5205" data-name="Path 5205" d="M-3566.009,722.325a.517.517,0,0,0-.335.169c-.28.267-.254.477-.209.827a3.009,3.009,0,0,1-.036,1.147c-.188.812-.286,1.289-.38,1.748l.147.031-.176.112c-.119.578-.243,1.181-.544,2.437l.024.125.01.01-.014.194a.863.863,0,0,0,.721.742l.04,0c.578-.061.616-.621.607-1.405v-.345a2.5,2.5,0,0,1,.063-.871,29.148,29.148,0,0,0,.623-3.507,1.656,1.656,0,0,0-.26-1.257A.37.37,0,0,0-3566.009,722.325Z" fill="#fff"/>
      <path id="Path_5206" data-name="Path 5206" d="M-3568.217,730.906a.794.794,0,0,0-.286.049,3.382,3.382,0,0,0-1.758,1.643.441.441,0,0,0,.126.574l.044.042h.06a.733.733,0,0,0,.435-.238,1.922,1.922,0,0,1,.544-.418.991.991,0,0,1,.342-.076.45.45,0,0,1,.369.176.631.631,0,0,1,.1.8,5.152,5.152,0,0,1-.524.6c-.393.413-.839.88-.821,1.274a.554.554,0,0,0,.216.4.612.612,0,0,0,.411.166.743.743,0,0,0,.635-.418l.168-.351a7.832,7.832,0,0,0,1.068-3.167A1.218,1.218,0,0,0-3568.217,730.906Z" fill="#fff"/>
      <path id="Path_5207" data-name="Path 5207" d="M-3573.188,738.586a.891.891,0,0,0-.37-.093c-.358,0-.606.326-.981.82a8.665,8.665,0,0,1-1.025,1.177,1.259,1.259,0,0,0-.278.48.476.476,0,0,0,.05.447.634.634,0,0,0,.516.249h.027l.142-.048c.213-.062.38-.112,2.163-1.795a.761.761,0,0,0,.178-.262.756.756,0,0,0-.008-.574A.744.744,0,0,0-3573.188,738.586Z" fill="#fff"/>
      <path id="Path_5208" data-name="Path 5208" d="M-3571.457,735.762a.916.916,0,0,0-.676.355.844.844,0,0,0-.217.654,2.183,2.183,0,0,0,.859,1.353.84.84,0,0,0,.513.191.7.7,0,0,0,.548-.27.843.843,0,0,0,.138-.735C-3570.534,736.312-3570.948,735.762-3571.457,735.762Z" fill="#fff"/>
      <path id="Path_5209" data-name="Path 5209" d="M-3595.956,726.62c.307,0,.608.222,1.03.563a6.566,6.566,0,0,0,2.6,1.388,6.7,6.7,0,0,1,1.889.85c.714.462,1.474.874,2.278,1.308a2.865,2.865,0,0,0,1.376.39,2.4,2.4,0,0,0,.8-.143,11.117,11.117,0,0,0,4.541-3.693,4.834,4.834,0,0,0,1.121-3.908l.01-.544a3.635,3.635,0,0,0-.861-2.788c-.328-.455-.619-.934-.948-1.481a17.129,17.129,0,0,0-1.212-1.821c-.918-1.148-1.329-1.34-3.059-2.15l-1.244-.59a6.984,6.984,0,0,0-2.972-.628,6.85,6.85,0,0,0-2.708.526,6.949,6.949,0,0,0-3.25,2.862c-.942,1.392-1.685,3.447-1.283,4.684a1.487,1.487,0,0,0,.96.99,3.789,3.789,0,0,1,1.638,1.24,5.508,5.508,0,0,0,2.363,1.714c.588.231,2.88.974,3.041,1.013a1.922,1.922,0,0,0,.328.03c.754,0,1.251-.512,2.015-1.3.2-.2.411-.425.654-.663a2.987,2.987,0,0,0,.8-1.323c.255-.905.518-1.869.7-2.83a1.6,1.6,0,0,0-.266-1.43c-.383-.523-1.181-1.613-4.086-2.6a2.683,2.683,0,0,0-.873-.131,4.827,4.827,0,0,0-3.842,2.059,4.091,4.091,0,0,0-.776,1.858,4.643,4.643,0,0,1-.276,1.039.706.706,0,0,1-.663.445.637.637,0,0,1-.551-.3,1.639,1.639,0,0,1-.262-.995,7.484,7.484,0,0,1,2.17-4.13,6.318,6.318,0,0,1,4.241-1.661,4.791,4.791,0,0,1,2.022.421l.346.159c2.669,1.228,3.225,1.484,4.29,3,.705,1,.965,1.449.323,2.577a4.622,4.622,0,0,0-.653,2.026,5.306,5.306,0,0,1-.393,1.58,6.42,6.42,0,0,1-2.012,2.374c-.349.3-.725.62-1.118,1a2.678,2.678,0,0,0-.2.228c-.28.344-.7.865-1.291.865a1.221,1.221,0,0,1-.707-.25,5.9,5.9,0,0,0-1.867-.883,11.692,11.692,0,0,1-1.993-.81c-.267-.139-.526-.289-.822-.462-.268-.157-.537-.312-.814-.452a3.849,3.849,0,0,1-1.6-1.4,1.881,1.881,0,0,0-.334-.4.842.842,0,0,0-.48-.132.545.545,0,0,0-.285.06c-.388.291-.22.76.021,1.3a5.873,5.873,0,0,1,.413,1.622,2.84,2.84,0,0,0,.6,1.644,10.867,10.867,0,0,0,4.294,3.136,3.661,3.661,0,0,0,1.179.236c.677,0,.83-.317.879-.719-.106-.225-.519-.37-1.249-.608a10.347,10.347,0,0,1-3.527-1.756l-.193-.151a2.526,2.526,0,0,1-.858-.938.691.691,0,0,1,.068-.837A.706.706,0,0,1-3595.956,726.62Zm1.377-5.232c.064-.192.124-.391.185-.595.4-1.348.862-2.876,2.974-3.442a2.914,2.914,0,0,1,.759-.1,5.336,5.336,0,0,1,3.414,1.64,2.092,2.092,0,0,1,.658,1.744l-.037.272a6.052,6.052,0,0,1-.658,2.322,3.3,3.3,0,0,1-2.672,1.883,2.293,2.293,0,0,1-.424-.04c-1.511-.287-3.368-1-4.044-2.157A1.785,1.785,0,0,1-3594.579,721.388Zm7.469,7.006c2.051-1.431,3.9-2.893,3.952-5.025v-.379c-.008-.706-.018-1.673.677-1.958a.906.906,0,0,1,.347-.076c.47,0,.632.467.755.941l.058.245-.073.969c-.19,2.7-.332,3.247-4.235,6.51a1.6,1.6,0,0,1-1.027.37.9.9,0,0,1-.917-.5A1.091,1.091,0,0,1-3587.11,728.394Z" fill="#fff"/>
      <path id="Path_5210" data-name="Path 5210" d="M-3590.358,723.356a1.715,1.715,0,0,0,1.607-.91,2.485,2.485,0,0,0,.428-1.465,2.331,2.331,0,0,0-2.264-2.014,2.208,2.208,0,0,0-1.9,1.162,2.262,2.262,0,0,0-.233,2.073A3.012,3.012,0,0,0-3590.358,723.356Zm-.251-3.227h0a1.067,1.067,0,0,1,1.127,1.018,1.119,1.119,0,0,1-1.17,1.13,1.12,1.12,0,0,1-.771-.389.984.984,0,0,1-.3-.705A1.111,1.111,0,0,1-3590.609,720.129Z" fill="#fff"/>
    </g>
    <path id="Path_5211" data-name="Path 5211" d="M-3582.524,707.931l17.206,17.206v11.007a10.268,10.268,0,0,1-10.268,10.268h-10.471l-11.413-10.992v-16.2l7.873.823,5.727-2Z" opacity="0.3"/>
    <g id="Group_14802" data-name="Group 14802">
      <g id="Group_14800" data-name="Group 14800">
        <path id="Path_5212" data-name="Path 5212" d="M-3590.146,737.9a11.314,11.314,0,0,1-5.864-1.355,8.045,8.045,0,0,1-3.348-3.984,16.671,16.671,0,0,1-1.078-6.335V716.6a16.79,16.79,0,0,1,1.078-6.417,7.872,7.872,0,0,1,3.375-3.928,11.536,11.536,0,0,1,5.837-1.328,10.545,10.545,0,0,1,5.948,1.439,7.847,7.847,0,0,1,3.043,4.177,21.269,21.269,0,0,1,.912,6.667v4.536h-12.724v6.307a8.888,8.888,0,0,0,.3,2.545,2.534,2.534,0,0,0,.968,1.439,2.824,2.824,0,0,0,1.6.442,2.546,2.546,0,0,0,1.6-.471,2.657,2.657,0,0,0,.885-1.382,8.065,8.065,0,0,0,.277-2.3v-2.656h7.026v2.158q0,4.869-2.435,7.468T-3590.146,737.9Zm-2.821-19.862h5.643v-3.042a10.612,10.612,0,0,0-.277-2.684,2.717,2.717,0,0,0-.885-1.494,2.761,2.761,0,0,0-1.715-.47,2.456,2.456,0,0,0-1.6.5,2.956,2.956,0,0,0-.885,1.66,15.153,15.153,0,0,0-.276,3.319Z" fill="#fff"/>
      </g>
      <g id="Group_14801" data-name="Group 14801">
        <path id="Path_5213" data-name="Path 5213" d="M-3558.283,741.157V701.57h7.233v17.4l7.819-17.4h6.891l-7.575,17.692,8.357,21.895h-7.184l-6.647-18.034-1.661,3.03v15Z"/>
        <path id="Path_5214" data-name="Path 5214" d="M-3526.761,741.157v-15.1l-8.015-24.485h6.744l4.887,15.689,4.594-15.689h6.6l-7.918,24.485v15.1Z"/>
        <path id="Path_5215" data-name="Path 5215" d="M-3498.22,741.694a11.809,11.809,0,0,1-6.818-1.711,8.906,8.906,0,0,1-3.445-4.667,21.7,21.7,0,0,1-.978-6.817V714.375a22.652,22.652,0,0,1,.978-7.038,8.434,8.434,0,0,1,3.445-4.593,12.37,12.37,0,0,1,6.818-1.614,12.5,12.5,0,0,1,6.427,1.394,7.661,7.661,0,0,1,3.3,3.982,16.971,16.971,0,0,1,.978,6.011v3.324h-6.94V712.42a24.567,24.567,0,0,0-.171-3.03,3.764,3.764,0,0,0-.928-2.174,3.486,3.486,0,0,0-2.615-.807,3.715,3.715,0,0,0-2.713.855,4.122,4.122,0,0,0-1.1,2.3,19.44,19.44,0,0,0-.245,3.25v17.2a15.225,15.225,0,0,0,.342,3.543,3.673,3.673,0,0,0,1.247,2.1,3.9,3.9,0,0,0,2.468.708,3.288,3.288,0,0,0,2.565-.855,4.208,4.208,0,0,0,.954-2.273,23.425,23.425,0,0,0,.2-3.176v-3.568h6.94v3.177a19.2,19.2,0,0,1-.929,6.231,8.1,8.1,0,0,1-3.25,4.252A11.747,11.747,0,0,1-3498.22,741.694Z"/>
      </g>
    </g>
  </g>
</svg>
